<?xml version="1.0" encoding="UTF-8"?><svg width="18px" height="18px" viewBox="0 0 18 18" version="1.1" xmlns="http://www.w3.org/2000/svg" xmlns:xlink="http://www.w3.org/1999/xlink"><g id="AudioPauseSvg_svg__AudioPause_svg__远程监考DEMO" stroke="none" stroke-width="1" fill="none" fill-rule="evenodd"><g id="AudioPauseSvg_svg__AudioPause_svg__10.音频检测-正常" transform="translate(-475.000000, -437.000000)" fill-rule="nonzero"><g id="AudioPauseSvg_svg__AudioPause_svg__检测/基础版/完整/检测/摄像头备份-2" transform="translate(452.000000, 190.000000)"><g id="AudioPauseSvg_svg__AudioPause_svg__检测/简化版/元素/通用/选项-已选择" transform="translate(24.000000, 151.000000)"><g id="AudioPauseSvg_svg__AudioPause_svg__Select&amp;Dropdown/02.Select/01.Default/01.Normal备份-24" transform="translate(0.000000, 22.000000)"><g id="AudioPauseSvg_svg__AudioPause_svg__检测/拓展版/元素/通用/测试画面/有画面" transform="translate(0.000000, 48.000000)"><g id="AudioPauseSvg_svg__AudioPause_svg__编组-9" transform="translate(0.000000, 27.000000)"><path d="M8,0 C3.58892308,0 0,3.58892308 0,8 C0,12.4110769 3.58892308,16 8,16 C12.4110769,16 16,12.4110769 16,8 C16,3.58892308 12.4110769,0 8,0 Z" id="AudioPauseSvg_svg__AudioPause_svg__路径" stroke="#747A8C"/><path d="M7.13107692,4.40307692 C6.94386336,4.26698236 6.69611973,4.24744354 6.48988665,4.35250813 C6.28365357,4.45757271 6.15384615,4.66946974 6.15384615,4.90092308 L6.15384615,11.4350769 C6.15404526,11.6664195 6.28397369,11.878105 6.49016068,11.9830163 C6.69634766,12.0879275 6.94395291,12.0683373 7.13107692,11.9323077 L11.6233846,8.66523077 C11.7827426,8.54944338 11.8770408,8.36436604 11.8770408,8.16738462 C11.8770408,7.97040319 11.7827426,7.78532585 11.6233846,7.66953846 L7.13107692,4.40307692 Z" id="AudioPauseSvg_svg__AudioPause_svg__路径" fill="#747A8C"/></g></g></g></g></g></g></g></svg>