<svg viewBox="0 0 24 24" version="1.1" xmlns="http://www.w3.org/2000/svg" width="1em" height="1em" fill="currentColor"><g transform="translate(-16.000000, -966.000000)"><g transform="translate(16.000000, 966.000000)"><g transform="translate(2.000000, 2.000000)"><path d="M14.4375,3.9375 L14.4375,11.484375 C14.4375,12.5671875 13.9945312,13.5515625 13.2808594,14.2652344 C12.5671875,14.9789062 11.5828125,15.421875 10.5,15.421875 C8.334375,15.421875 6.5625,13.65 6.5625,11.484375 L6.5625,3.9375 C6.5625,1.771875 8.334375,0 10.5,0 C12.665625,0 14.4375,1.771875 14.4375,3.9375 Z"/><path d="M16.734375,10.171875 L16.734375,13.125 C16.734375,13.1824219 16.7261719,13.2398437 16.7118164,13.2972656 C16.3324219,14.6958984 15.5039062,15.8833008 14.4087891,16.7200195 C13.5166992,17.4008789 12.4482422,17.8520508 11.2998047,17.9956055 C11.2177734,18.0058594 11.15625,18.0755859 11.15625,18.1576172 L11.15625,19.359375 C11.15625,19.5398437 11.3039063,19.6875 11.484375,19.6875 L13.125,19.6875 C13.8489258,19.6875 14.4375,20.2760742 14.4375,21 L6.5625,21 C6.5625,20.2760742 7.15107422,19.6875 7.875,19.6875 L9.515625,19.6875 C9.69609375,19.6875 9.84375,19.5398437 9.84375,19.359375 L9.84375,18.159668 C9.84375,18.0776367 9.78222656,18.0079102 9.70019531,17.9976562 C7.14082031,17.6756836 4.97724609,15.834082 4.28818359,13.2972656 C4.27382813,13.2418945 4.265625,13.1824219 4.265625,13.125 L4.265625,10.1862305 C4.265625,9.82939453 4.54658203,9.52587891 4.90341797,9.515625 C5.27460938,9.50537109 5.578125,9.80273437 5.578125,10.171875 L5.578125,12.8337891 C5.578125,12.975293 5.60068359,13.1167969 5.64580078,13.2500977 C6.34306641,15.3172852 8.29746094,16.734375 10.5,16.734375 C12.7025391,16.734375 14.6569336,15.3172852 15.3541992,13.2500977 C15.3993164,13.1167969 15.421875,12.975293 15.421875,12.8337891 L15.421875,10.1862305 C15.421875,9.82939453 15.702832,9.52587891 16.059668,9.515625 C16.4308594,9.50537109 16.734375,9.80273437 16.734375,10.171875 L16.734375,10.171875 Z M21,5.18847656 C21,6.91728516 20.5385742,8.53945312 19.7326172,9.93603516 L18.703125,9.09111328 C18.8282227,8.86142578 18.9410156,8.62353516 19.0435547,8.38154297 C19.4701172,7.37050781 19.6875,6.29589844 19.6875,5.18847656 C19.6875,4.08105469 19.4701172,3.00644531 19.0435547,1.99541016 C18.8733398,1.59345703 18.6744141,1.20791016 18.4447266,0.840820312 L19.4660156,0.00205078125 C20.4360352,1.49501953 21,3.27509766 21,5.18847656 Z M17.71875,5.18847656 C17.71875,6.12363281 17.5116211,7.01367187 17.1424805,7.809375 L16.0863281,6.94189453 C16.2996094,6.38408203 16.40625,5.79550781 16.40625,5.18847656 C16.40625,4.52402344 16.2770508,3.87802734 16.0207031,3.27304687 C15.9755859,3.16435547 15.9263672,3.05771484 15.8730469,2.95517578 L16.9066406,2.10615234 C17.4234375,3.01464844 17.71875,4.06669922 17.71875,5.18847656 Z M4.97929688,3.27304687 C4.72294922,3.87802734 4.59375,4.52402344 4.59375,5.18847656 C4.59375,5.79345703 4.70244141,6.38408203 4.91572266,6.94189453 L3.85957031,7.809375 C3.48837891,7.01367187 3.28125,6.12363281 3.28125,5.18847656 C3.28125,4.06669922 3.5765625,3.01464844 4.09541016,2.10615234 L5.12900391,2.95517578 C5.07568359,3.05771484 5.02646484,3.16435547 4.97929687,3.27304687 L4.97929688,3.27304687 Z M1.95644531,8.38154297 C2.05898437,8.62353516 2.17382812,8.86142578 2.296875,9.09111328 L1.26738281,9.93808594 C0.461425781,8.53945312 0,6.91728516 0,5.18847656 C0,3.27509766 0.563964844,1.49501953 1.53603516,0.0041015625 L2.55732422,0.842871094 C2.32763672,1.20996094 2.12871094,1.59550781 1.95849609,1.99746094 C1.52988281,3.00644531 1.3125,4.08105469 1.3125,5.18847656 C1.3125,6.29589844 1.52988281,7.37050781 1.95644531,8.38154297 Z"/></g></g></g></svg>