<?xml version="1.0" encoding="UTF-8" ?><svg width="24px" height="24px" viewBox="0 0 24 24" version="1.1" xmlns="http://www.w3.org/2000/svg" xmlns:xlink="http://www.w3.org/1999/xlink"><title>
		摄像头已检测备份
	</title><g id="CameraSvg_svg__远程监考DEMO" stroke="none" stroke-width="1" fill="none" fill-rule="evenodd"><g id="CameraSvg_svg__步骤条的不同状态" transform="translate(-30.000000, -200.000000)"><g id="CameraSvg_svg__摄像头已检测备份" transform="translate(30.000000, 200.000000)"><circle id="CameraSvg_svg__椭圆形" stroke="#B3B9C6" cx="12" cy="12" r="11.5"/><path d="M14.1428571,16.5714286 L7.85714286,16.5714286 C7.38571429,16.5714286 7,16.1857143 7,15.7142857 L7,8.85714286 C7,8.38571429 7.38571429,8 7.85714286,8 L14.1428571,8 C14.6142857,8 15,8.38571429 15,8.85714286 L15,10.5971429 L17.3228571,8.93857143 C17.4514286,8.84428571 17.6271429,8.83142857 17.7685714,8.90428571 C17.91,8.97714286 18,9.12285714 18,9.28571429 L18,15.2857143 C18,15.4485714 17.91,15.5942857 17.7685714,15.6671429 C17.6271429,15.74 17.4557143,15.7271429 17.3228571,15.6328571 L15,13.9742857 L15,15.7142857 C15,16.1857143 14.6142857,16.5714286 14.1428571,16.5714286 Z M7.85714286,15.7142857 L14.1428571,15.7142857 L14.1428571,13.1428571 C14.1428571,12.98 14.2328571,12.8342857 14.3742857,12.7614286 C14.5157143,12.6885714 14.6871429,12.7014286 14.82,12.7957143 L17.1428571,14.4542857 L17.1428571,10.1214286 L14.82,11.78 C14.6914286,11.8742857 14.5157143,11.8871429 14.3742857,11.8142857 C14.2328571,11.7414286 14.1428571,11.5957143 14.1428571,11.4328571 L14.1428571,8.86142857 L7.85714286,8.86142857 L7.85714286,15.7142857 Z" id="CameraSvg_svg__形状" fill="#B2B7C4" fill-rule="nonzero"/></g></g></g></svg>