<?xml version="1.0" encoding="UTF-8"?><svg width="32px" height="27px" viewBox="0 0 32 27" version="1.1" xmlns="http://www.w3.org/2000/svg" xmlns:xlink="http://www.w3.org/1999/xlink"><g id="CameraErrorSvg_svg__远程监考DEMO" stroke="none" stroke-width="1" fill="none" fill-rule="evenodd"><g id="CameraErrorSvg_svg__7.摄像头检测-异常" transform="translate(-688.000000, -415.000000)" fill="#B2B7C4"><g id="CameraErrorSvg_svg__检测/基础版/完整/检测/摄像头" transform="translate(495.000000, 169.000000)"><g id="CameraErrorSvg_svg__检测/拓展版/元素/通用/测试画面/有画面" transform="translate(21.000000, 173.000000)"><g id="CameraErrorSvg_svg__编组-3" transform="translate(75.000000, 75.000000)"><g id="CameraErrorSvg_svg__摄像头结果异常" transform="translate(99.000000, 0.000000)"><path d="M20,21 L3,21 C1.9,21 1,20.1 1,19 L1,3 C1,1.9 1.9,1 3,1 L20,1 C21.1,1 22,1.9 22,3 L22,7.06 L27.42,3.19 C27.72,2.97 28.13,2.94 28.46,3.11 C28.79,3.28 29,3.62 29,4 L29,18 C29,18.38 28.79,18.72 28.46,18.89 C28.13,19.06 27.73,19.03 27.42,18.81 L22,14.94 L22,19 C22,20.1 21.1,21 20,21 Z" id="CameraErrorSvg_svg__路径"/><path d="M1.13639129,-0.616992581 C1.6268924,-0.664896867 2.13544851,-0.52793254 2.54883242,-0.195041379 L2.54883242,-0.195041379 L27.8851476,20.2078705 C28.3026426,20.5539136 28.5340676,21.026981 28.5813451,21.5110644 C28.6296147,22.0053057 28.4863158,22.5135212 28.1442224,22.9212122 C27.8030585,23.3277955 27.3306124,23.5605684 26.8401113,23.6084727 C26.3496102,23.656377 25.8410541,23.5194126 25.4276702,23.1865215 L25.4276702,23.1865215 L0.091354999,2.78360961 C-0.326139978,2.43756654 -0.557565007,1.96449908 -0.604842508,1.48041574 C-0.653112086,0.986174344 -0.509813157,0.477958856 -0.167719827,0.0702679011 C0.173444066,-0.336315394 0.645890175,-0.569088294 1.13639129,-0.616992581 Z" id="CameraErrorSvg_svg__矩形" stroke="#F4F4F7" stroke-width="2" transform="translate(13.988251, 11.495740) scale(-1, 1) translate(-13.988251, -11.495740) "/></g></g></g></g></g></g></svg>