<svg width="36px" height="36px" viewBox="0 0 36 36" version="1.1" xmlns="http://www.w3.org/2000/svg" xmlnsXlink="http://www.w3.org/1999/xlink"><title>关闭</title><g id="ErrorModalSvg_svg__远程监考DEMO" stroke="none" strokeWidth="1" fill="none" fillRule="evenodd"><g id="ErrorModalSvg_svg__5.3浏览器不支持" transform="translate(-702.000000, -377.000000)"><g id="ErrorModalSvg_svg__编组-9" transform="translate(507.000000, 308.000000)"><g id="ErrorModalSvg_svg__关闭" transform="translate(213.000000, 87.000000) rotate(-360.000000) translate(-213.000000, -87.000000) translate(195.000000, 69.000000)"><path d="M18,0 C8.05885714,0 0,8.05885714 0,18 C0,27.9411429 8.05885714,36 18,36 C27.9411429,36 36,27.9411429 36,18 C36,8.05885714 27.9411429,0 18,0 L18,0 Z" id="ErrorModalSvg_svg__路径" fill="#FF706B"/><path d="M18,0 C8.05885714,0 0,8.05885714 0,18 C0,27.9411429 8.05885714,36 18,36 C27.9411429,36 36,27.9411429 36,18 C36,8.05885714 27.9411429,0 18,0 L18,0 Z" id="ErrorModalSvg_svg__路径" fill="#FF706B"/><rect id="ErrorModalSvg_svg__矩形" fill="#FFFFFF" transform="translate(18.000000, 18.000000) rotate(-315.000000) translate(-18.000000, -18.000000) " x="6.75" y="16.875" width="22.5" height="2.25"/><polygon id="ErrorModalSvg_svg__矩形备份" fill="#FFFFFF" transform="translate(18.000000, 18.000000) rotate(-585.000000) translate(-18.000000, -18.000000) " points="6.75 16.875 29.25 16.875 29.25 19.125 6.75 19.125"/></g></g></g></g></svg>