<svg width="14px" height="14px" viewBox="0 0 14 14" version="1.1" xmlns="http://www.w3.org/2000/svg" xmlns:xlink="http://www.w3.org/1999/xlink">
    <defs>
        <path d="M7,0 C10.8659932,0 14,3.13400675 14,7 C14,10.8659932 10.8659932,14 7,14 C3.13400675,14 0,10.8659932 0,7 C0,3.13400675 3.13400675,0 7,0 Z M8.75,11.375 L8.75,9.625 L7.875,9.625 L7.875,5.25 L5.25,5.25 L5.25,7 L6.125,7 L6.125,11.375 L8.75,11.375 Z M7.875,2.625 L6.125,2.625 L6.125,4.375 L7.875,4.375 L7.875,2.625 Z" id="path-1"></path>
    </defs>
    <g id="远程监考" stroke="none" stroke-width="1" fill="none" fill-rule="evenodd">
        <g id="10.音频检测-正常" transform="translate(-541.000000, -321.000000)">
            <g id="Message/01.Message-Single/02.Success备份" transform="translate(525.000000, 310.000000)">
                <g id="✦-Icon/Info-circle-fill" transform="translate(16.000000, 11.000000)">
                    <mask id="mask-2" fill="white">
                        <use xlink:href="#path-1"></use>
                    </mask>
                    <use id="info-circle" fill="#0070CC" xlink:href="#path-1"></use>
                </g>
            </g>
        </g>
    </g>
</svg>