<?xml version="1.0" encoding="UTF-8"?><svg width="29px" height="30px" viewBox="0 0 29 30" version="1.1" xmlns="http://www.w3.org/2000/svg" xmlns:xlink="http://www.w3.org/1999/xlink"><defs><path d="M2.14290351,12.8571429 L2.14290351,16.0714286 C2.14290351,20.2178571 5.49647494,23.5714286 9.64290351,23.5714286 C13.7893321,23.5714286 17.1429035,20.2178571 17.1429035,16.0714286 L17.1429035,16.0714286 L17.1429035,12.8571429 L19.2857606,12.8571429 L19.2857606,16.0714286 C19.2750464,20.9785714 15.5893321,25.1035714 10.7143321,25.65 L10.7143321,25.65 L10.7143321,27.8571429 L15.0000464,27.8571429 L15.0000464,30 L4.28576065,30 L4.28576065,27.8571429 L8.57147494,27.8571429 L8.57147494,25.65 C3.68576065,25.1142857 -0.0106679218,20.9892857 2.31316986e-05,16.0714286 L2.31316986e-05,16.0714286 L2.31316986e-05,12.8571429 L2.14290351,12.8571429 Z M9.64290351,0 C12.6000464,0 15.0000464,2.4 15.0000464,5.35714286 L15.0000464,5.35714286 L15.0000464,16.0714286 C15.0000464,19.0285714 12.6000464,21.4285714 9.64290351,21.4285714 C6.68576065,21.4285714 4.28576065,19.0285714 4.28576065,16.0714286 L4.28576065,16.0714286 L4.28576065,5.35714286 C4.28576065,2.4 6.68576065,0 9.64290351,0 Z" id="MicErrorSvg_svg__path-1"/></defs><g id="MicErrorSvg_svg__远程监考DEMO" stroke="none" stroke-width="1" fill="none" fill-rule="evenodd"><g id="MicErrorSvg_svg__9.麦克风异常" transform="translate(-758.000000, -393.000000)"><g id="MicErrorSvg_svg__检测/基础版/完整/检测/摄像头备份" transform="translate(506.000000, 126.000000)"><g id="MicErrorSvg_svg__编组-2" transform="translate(24.000000, 221.000000)"><g id="MicErrorSvg_svg__编组-3" transform="translate(77.000000, 46.000000)"><g id="MicErrorSvg_svg__编组-4" transform="translate(153.000000, 0.000000)"><g id="MicErrorSvg_svg__ic_microphone备份-2" transform="translate(3.000000, 0.000000)"><mask id="MicErrorSvg_svg__mask-2" fill="white"><use xlink:href="#MicErrorSvg_svg__path-1"/></mask><use id="MicErrorSvg_svg__蒙版" fill="#B2B7C4" fill-rule="nonzero" xlink:href="#MicErrorSvg_svg__path-1"/></g><path d="M1.12219545,4.37319166 C1.60881336,4.31539003 2.11666521,4.43635186 2.53951442,4.74869619 L2.53951442,4.74869619 L24.8419343,21.2227354 C25.2777143,21.5746214 25.5107378,22.0416791 25.5663131,22.5095545 C25.6254964,23.007804 25.4850491,23.5150308 25.1442224,23.9212122 C24.806309,24.3239217 24.3409251,24.5604868 23.8543072,24.6182884 C23.3676893,24.6760901 22.8598374,24.5551282 22.4369882,24.2427839 L22.4369882,24.2427839 L0.134568261,7.76874468 C-0.301211726,7.41685868 -0.534235171,6.94980097 -0.589810516,6.48192563 C-0.648993783,5.98367607 -0.508546446,5.47644925 -0.167719827,5.0702679 C0.17019358,4.66755838 0.63557754,4.43099329 1.12219545,4.37319166 Z" id="MicErrorSvg_svg__矩形" stroke="#F4F4F7" stroke-width="2" fill="#B2B7C4" transform="translate(12.488251, 14.495740) scale(-1, 1) translate(-12.488251, -14.495740) "/></g></g></g></g></g></g></svg>