<?xml version="1.0" encoding="UTF-8"?><svg width="11px" height="17px" viewBox="0 0 11 17" version="1.1" xmlns="http://www.w3.org/2000/svg" xmlns:xlink="http://www.w3.org/1999/xlink"><title>蒙版</title><defs><path d="M1.22224573,7.28571429 L1.22224573,9.10714286 C1.22224573,11.4567857 3.13501891,13.3571429 5.50001319,13.3571429 C7.86500754,13.3571429 9.77778072,11.4567857 9.77778072,9.10714286 L9.77778072,9.10714286 L9.77778072,7.28571429 L11,7.28571429 L11,9.10714286 C10.9938889,11.8878571 8.89167174,14.2253571 6.11112286,14.535 L6.11112286,14.535 L6.11112286,15.7857143 L8.55556143,15.7857143 L8.55556143,17 L2.44446501,17 L2.44446501,15.7857143 L4.88890358,15.7857143 L4.88890358,14.535 C2.10224361,14.2314286 -0.00608465188,11.8939286 1.3193604e-05,9.10714286 L1.3193604e-05,9.10714286 L1.3193604e-05,7.28571429 L1.22224573,7.28571429 Z M5.50001322,0 C7.18667583,0 8.55556143,1.36 8.55556143,3.03571429 L8.55556143,3.03571429 L8.55556143,9.10714286 C8.55556143,10.7828571 7.18667583,12.1428571 5.50001322,12.1428571 C3.81335061,12.1428571 2.44446501,10.7828571 2.44446501,9.10714286 L2.44446501,9.10714286 L2.44446501,3.03571429 C2.44446501,1.36 3.81335061,0 5.50001322,0 Z M5.50001322,1.21428571 C4.48557122,1.21428571 3.6666843,2.02785714 3.6666843,3.03571429 L3.6666843,3.03571429 L3.6666843,9.10714286 C3.6666843,10.115 4.48557122,10.9285714 5.50001322,10.9285714 C6.51445523,10.9285714 7.33334215,10.115 7.33334215,9.10714286 L7.33334215,9.10714286 L7.33334215,3.03571429 C7.33334215,2.02785714 6.51445523,1.21428571 5.50001322,1.21428571 Z" id="MicPreviewSvg_svg__path-1"/></defs><g id="MicPreviewSvg_svg__远程监考" stroke="none" stroke-width="1" fill="none" fill-rule="evenodd"><g id="MicPreviewSvg_svg__8.麦克风检测-正常" transform="translate(-493.000000, -341.000000)"><g id="MicPreviewSvg_svg__检测/简化版/元素/通用/选项-已选择" transform="translate(492.000000, 242.000000)"><g id="MicPreviewSvg_svg__Select&amp;Dropdown/02.Select/01.Default/01.Normal备份-24" transform="translate(0.000000, 22.000000)"><g id="MicPreviewSvg_svg__检测/拓展版/元素/通用/测试画面/有画面" transform="translate(0.000000, 48.000000)"><g id="MicPreviewSvg_svg__编组-88" transform="translate(0.000000, 26.000000)"><g id="MicPreviewSvg_svg__ic_microphone备份-2" transform="translate(1.000000, 3.000000)"><mask id="MicPreviewSvg_svg__mask-2" fill="white"><use xlink:href="#MicPreviewSvg_svg__path-1"/></mask><use id="MicPreviewSvg_svg__蒙版" fill="#3A3D48" fill-rule="nonzero" xlink:href="#MicPreviewSvg_svg__path-1"/></g></g></g></g></g></g></g></svg>