<?xml version="1.0" encoding="UTF-8" ?><svg width="24px" height="24px" viewBox="0 0 24 24" version="1.1" xmlns="http://www.w3.org/2000/svg" xmlns:xlink="http://www.w3.org/1999/xlink"><title>
		麦克风未选中
	</title><defs><path d="M8.88890598,11.3333205 L8.88890598,12.6666506 C8.88890598,14.3866465 10.2800138,15.7777543 12.0000096,15.7777543 C13.7200055,15.7777543 15.1111132,14.3866465 15.1111132,12.6666506 L15.1111132,12.6666506 L15.1111132,11.3333205 L16.0000096,11.3333205 L16.0000096,12.6666506 C15.9955556,14.7022013 14.4666704,16.4133083 12.444453,16.6399744 L12.444453,16.6399744 L12.444453,17.5555278 L14.2222265,17.5555278 L14.2222265,18.4444145 L9.77779274,18.4444145 L9.77779274,17.5555278 L11.5555662,17.5555278 L11.5555662,16.6399744 C9.52890445,16.4177527 7.9955748,14.7066457 8.0000096,12.6666506 L8.0000096,12.6666506 L8.0000096,11.3333205 L8.88890598,11.3333205 Z M12.0000096,6 C13.2266733,6 14.2222265,6.99555316 14.2222265,8.22221688 L14.2222265,8.22221688 L14.2222265,12.6666506 C14.2222265,13.8933144 13.2266733,14.8888675 12.0000096,14.8888675 C10.7733459,14.8888675 9.77779274,13.8933144 9.77779274,12.6666506 L9.77779274,12.6666506 L9.77779274,8.22221688 C9.77779274,6.99555316 10.7733459,6 12.0000096,6 Z M12.0000096,6.88888675 C11.2622336,6.88888675 10.6666795,7.48444088 10.6666795,8.22221688 L10.6666795,8.22221688 L10.6666795,12.6666506 C10.6666795,13.4044266 11.2622336,13.9999808 12.0000096,13.9999808 C12.7377856,13.9999808 13.3333397,13.4044266 13.3333397,12.6666506 L13.3333397,12.6666506 L13.3333397,8.22221688 C13.3333397,7.48444088 12.7377856,6.88888675 12.0000096,6.88888675 Z" id="MicrophoneSvg_svg__path-1"/></defs><g id="MicrophoneSvg_svg__远程监考DEMO" stroke="none" stroke-width="1" fill="none" fill-rule="evenodd"><g id="MicrophoneSvg_svg__步骤条的不同状态" transform="translate(-95.000000, -52.000000)"><g id="MicrophoneSvg_svg__麦克风未选中" transform="translate(95.000000, 52.000000)"><circle id="MicrophoneSvg_svg__椭圆形" stroke="#B2B7C4" cx="12" cy="12" r="11.5"/><mask id="MicrophoneSvg_svg__mask-2" fill="white"><use xlink:href="#MicrophoneSvg_svg__path-1"/></mask><use id="MicrophoneSvg_svg__蒙版" fill="#B2B7C4" fill-rule="nonzero" xlink:href="#MicrophoneSvg_svg__path-1"/></g></g></g></svg>