<svg width="12px" height="12px" viewBox="0 0 12 12" version="1.1" xmlns="http://www.w3.org/2000/svg" xmlns:xlink="http://www.w3.org/1999/xlink">
    <title>redo</title>
    <defs>
        <path d="M12,4 L12,9.24390485 L11.952729,9.24320938 C11.9530233,9.24554782 11.9533162,9.24788667 11.9536078,9.25022593 L10.4009298,9.25012728 C10.4005397,9.24780158 10.4001478,9.24547648 10.3997541,9.24315199 L6.71312715,9.24390485 L9.15208019,6.82500714 C8.3371955,6.00656194 7.20931829,5.5 5.9631273,5.5 C3.47784587,5.5 1.4631273,7.51471863 1.4631273,10 C1.4631273,12.4852814 3.47784587,14.5 5.9631273,14.5 C7.92204734,14.5 9.58861978,13.2483101 10.2066826,11.5010919 L11.8107837,11.5007383 C11.1444627,14.0882045 8.79549304,16 6,16 C2.68629142,16 0,13.3137085 0,10 C0,6.6862915 2.68629142,4 6,4 C7.65333958,4 9.15048977,4.6687268 10.2357254,5.75045536 L12,4 Z" id="path-1"></path>
    </defs>
    <g id="远程监考" stroke="none" stroke-width="1" fill="none" fill-rule="evenodd">
        <g id="15.考生端" transform="translate(-188.000000, -1185.000000)">
            <g id="编组-5" transform="translate(188.000000, 1181.000000)">
                <mask id="mask-2" fill="white">
                    <use xlink:href="#path-1"></use>
                </mask>
                <use id="redo" fill="#1597FF" xlink:href="#path-1"></use>
            </g>
        </g>
    </g>
</svg>