<?xml version="1.0" encoding="UTF-8"?><svg width="31px" height="27px" viewBox="0 0 31 27" version="1.1" xmlns="http://www.w3.org/2000/svg" xmlns:xlink="http://www.w3.org/1999/xlink"><g id="ScreenErrorSvg_svg__远程监考DEMO" stroke="none" stroke-width="1" fill="none" fill-rule="evenodd"><g id="ScreenErrorSvg_svg__13.共享屏幕检测-开启失败" transform="translate(-405.000000, -405.000000)" fill="#B2B7C4"><g id="ScreenErrorSvg_svg__检测/基础版/完整/检测/摄像头" transform="translate(206.000000, 173.000000)"><g id="ScreenErrorSvg_svg__检测/拓展版/元素/通用/测试画面/有画面" transform="translate(25.000000, 152.000000)"><g id="ScreenErrorSvg_svg__编组-3" transform="translate(87.000000, 81.000000)"><g id="ScreenErrorSvg_svg__编组-4" transform="translate(89.000000, 0.000000)"><path d="M23.9465302,0 C25.0800605,0 26,0.99107873 26,2.20575449 L26,2.20575449 L26,16.918842 C26,18.1375465 25.0781869,19.1266109 23.9465302,19.1266109 L23.9465302,19.1266109 L13.907761,19.1266109 L13.907761,22.2569693 L17.3120992,22.2569693 C17.8591915,22.2569693 18.301362,22.6940914 18.301362,23.2319329 C18.301362,23.7697744 17.8591915,24.2068966 17.3120992,24.2068966 L17.3120992,24.2068966 L8.68790084,24.2068966 C8.14080853,24.2068966 7.69863803,23.7697744 7.69863803,23.2319329 C7.69863803,22.6940914 8.14080853,22.2569693 8.68790084,22.2569693 L8.68790084,22.2569693 L12.092239,22.2569693 L12.092239,19.1266109 L2.05159617,19.1266109 C0.921813072,19.1266109 0,18.1355321 0,16.918842 L0,16.918842 L0,2.20776888 C0,0.99107873 0.919939468,0 2.05159617,0 L2.05159617,0 Z M14.2485541,6.06223287 L14.2485541,7.71317146 L14.1849434,7.71317146 C11.9323777,7.71317146 8.10077085,10.6535755 8.06896552,13.2684424 C8.06896552,13.4777163 8.21863766,13.5369049 8.3626971,13.2684424 C9.09047789,11.8014112 12.1494023,11.0404152 13.7078635,11.0404152 L14.2485541,11.0404152 L14.2485541,12.7822505 C14.2485541,13.3022645 14.5890582,13.6573959 14.9763349,13.3064922 L18.5385319,10.0764869 C18.9239376,9.72769704 18.9239376,9.15483615 18.5385319,8.80393243 L14.9482714,5.53799116 C14.5628656,5.18708744 14.2485541,5.44286666 14.2485541,6.06223287 Z" id="ScreenErrorSvg_svg__形状" fill-rule="nonzero"/><path d="M1.14621103,0.063190743 C1.63924302,0.0214062725 2.14701416,0.168506206 2.5533842,0.513273494 L2.5533842,0.513273494 L26.9371511,21.2006381 C27.3432262,21.5451551 27.5720204,22.0213276 27.6137198,22.5133563 C27.6554193,23.005385 27.5100239,23.51327 27.1642477,23.9253276 C26.8144309,24.3376933 26.3391697,24.5625543 25.8498961,24.6026809 C25.358695,24.6429656 24.8521258,24.4958634 24.4466158,24.1518258 L24.4466158,24.1518258 L0.0628488752,3.46446117 C-0.343226166,3.11994416 -0.572020397,2.64377172 -0.613719841,2.151743 C-0.655419284,1.65971428 -0.510023939,1.15182927 -0.164230854,0.739751885 C0.181477691,0.332250514 0.656911039,0.104658926 1.14621103,0.063190743 Z" id="ScreenErrorSvg_svg__矩形" stroke="#F4F4F7" stroke-width="2" transform="translate(13.500000, 12.332550) scale(-1, 1) translate(-13.500000, -12.332550) "/></g></g></g></g></g></g></svg>