<?xml version="1.0" encoding="UTF-8" ?><svg width="24px" height="24px" viewBox="0 0 24 24" version="1.1" xmlns="http://www.w3.org/2000/svg" xmlns:xlink="http://www.w3.org/1999/xlink"><title>
		屏幕共享未检测
	</title><g id="ScreenSvg_svg__远程监考DEMO" stroke="none" stroke-width="1" fill="none" fill-rule="evenodd"><g id="ScreenSvg_svg__步骤条的不同状态" transform="translate(-240.000000, -52.000000)"><g id="ScreenSvg_svg__屏幕共享未检测" transform="translate(240.000000, 52.000000)"><circle id="ScreenSvg_svg__椭圆形" stroke="#B2B7C4" cx="12" cy="12" r="11.5"/><g id="ScreenSvg_svg__编组" transform="translate(6.000000, 7.000000)" fill="#B2B7C4" fill-rule="nonzero"><path d="M11.0522447,0 L0.946890538,0 C0.424587447,0 0,0.450361987 0,1.0032454 L0,7.68819173 C0,8.24107514 0.425452187,8.69143713 0.946890538,8.69143713 L5.58103336,8.69143713 L5.58103336,10.1139219 L4.00980039,10.1139219 C3.75729625,10.1139219 3.55321755,10.3125572 3.55321755,10.556961 C3.55321755,10.8013647 3.75729625,11 4.00980039,11 L7.99019961,11 C8.24270375,11 8.44678245,10.8013647 8.44678245,10.556961 C8.44678245,10.3125572 8.24270375,10.1139219 7.99019961,10.1139219 L6.41896664,10.1139219 L6.41896664,8.69143713 L11.0522447,8.69143713 C11.5745478,8.69143713 12,8.24199051 12,7.68819173 L12,1.00233003 C12,0.450361987 11.5754126,0 11.0522447,0 Z M11.1179662,7.53166348 C11.1181948,7.61630634 11.0865912,7.69756581 11.0301311,7.75750341 C10.9736709,7.81744101 10.8969969,7.85112757 10.8170354,7.85112757 L1.18296462,7.85112757 C1.10300307,7.85112757 1.02632911,7.81744101 0.969868944,7.75750341 C0.913408773,7.69756581 0.881805247,7.61630634 0.882033778,7.53166348 L0.882033778,1.15885828 C0.882033778,0.982191895 1.01779924,0.840309561 1.18296462,0.840309561 L10.8170354,0.840309561 C10.9830655,0.840309561 11.1179662,0.982191895 11.1179662,1.15885828 L11.1179662,7.53166348 L11.1179662,7.53166348 Z M6.69308928,2.66738787 C6.5149528,2.51543647 6.36967644,2.62619622 6.36967644,2.8943996 L6.36967644,3.60930349 L6.34027528,3.60930349 C5.29912805,3.60930349 3.52814009,4.88258301 3.5134395,6.01489556 C3.5134395,6.10551718 3.58261872,6.13114754 3.64920372,6.01489556 C3.98558766,5.37962886 5.39943792,5.0500957 6.11976652,5.0500957 L6.36967644,5.0500957 L6.36967644,5.80436049 C6.36967644,6.02954148 6.52705916,6.18332362 6.70606039,6.03137222 L8.35252576,4.63268703 C8.53066225,4.48165099 8.53066225,4.23358575 8.35252576,4.08163435 L6.69308928,2.66738787 L6.69308928,2.66738787 Z" id="ScreenSvg_svg__形状"/></g></g></g></g></svg>