<?xml version="1.0" encoding="UTF-8"?><svg width="31px" height="26px" viewBox="0 0 31 26" version="1.1" xmlns="http://www.w3.org/2000/svg" xmlns:xlink="http://www.w3.org/1999/xlink"><defs><path d="M15.5138308,0.271724282 C15.6903355,0.438939225 15.7925224,0.68047192 15.7925224,0.922004616 L15.7925224,25.0752741 C15.7925224,25.5862087 15.374485,26.004246 14.8635505,26.004246 C14.6127281,26.004246 14.3804851,25.9020591 14.2039804,25.7255545 L7.12521451,18.5724708 L0.928971905,18.5724708 C0.454532682,18.5724708 0.0601935877,18.2120202 0.00628003966,17.7514445 L0,17.6434989 L0,8.35377985 C0,7.84284531 0.418037357,7.42480795 0.928971905,7.42480795 L7.12521451,7.42480795 L14.2039804,0.271724282 C14.5662795,-0.0905747607 15.1515318,-0.0905747607 15.5138308,0.271724282 Z M23.3729331,5.64118189 L23.3729331,5.67834077 C26.9959236,9.97019097 26.8565778,16.2964896 23.047793,20.4304146 L23.047793,20.4304146 L21.6822043,19.129854 C24.8592882,15.6833682 24.9707648,10.4160975 21.9516061,6.83955565 L21.9516061,6.83955565 L23.3729331,5.64118189 Z M19.6013072,8.084378 C22.0259239,10.9456115 21.9330267,15.1631439 19.3876437,17.9221905 L19.3876437,17.9221905 L18.022055,16.6587887 C19.9264474,14.5964711 20.0007651,11.4286769 18.1892699,9.28275176 L18.1892699,9.28275176 Z" id="SpeakerErrorSvg_svg__path-1"/></defs><g id="SpeakerErrorSvg_svg__远程监考DEMO" stroke="none" stroke-width="1" fill="none" fill-rule="evenodd"><g id="SpeakerErrorSvg_svg__11.音频检测-异常" transform="translate(-689.000000, -434.000000)"><g id="SpeakerErrorSvg_svg__检测/拓展版/元素/通用/测试画面/有画面" transform="translate(459.000000, 387.000000)"><g id="SpeakerErrorSvg_svg__编组-3" transform="translate(42.000000, 47.000000)"><g id="SpeakerErrorSvg_svg__编组-9" transform="translate(190.000000, 0.000000)"><g id="SpeakerErrorSvg_svg__ic_volume_up" transform="translate(1.104437, 0.000000)"><mask id="SpeakerErrorSvg_svg__mask-2" fill="white"><use xlink:href="#SpeakerErrorSvg_svg__path-1"/></mask><use id="SpeakerErrorSvg_svg__蒙版" fill="#B2B7C4" fill-rule="nonzero" xlink:href="#SpeakerErrorSvg_svg__path-1"/></g><path d="M1.31120259,1.30720164 C1.79966334,1.25397564 2.30791321,1.38235641 2.72649591,1.70427106 L2.72649591,1.70427106 L26.8884359,20.2862201 C27.3158012,20.635569 27.5480142,21.1054593 27.5998044,21.5807428 C27.653896,22.0771475 27.5121409,22.5848331 27.170733,22.9917072 C26.8313067,23.3962197 26.3626351,23.6310524 25.8741743,23.6842784 C25.3857136,23.7375045 24.8774637,23.6091237 24.458881,23.287209 L24.458881,23.287209 L0.296941077,4.70526003 C-0.130424315,4.35591109 -0.362637312,3.88602083 -0.414427446,3.41073725 C-0.468519076,2.91433258 -0.326763973,2.40664702 0.0146439441,1.9997729 C0.354070204,1.59526044 0.822741844,1.36042765 1.31120259,1.30720164 Z" id="SpeakerErrorSvg_svg__矩形" stroke="#F4F4F7" stroke-width="2" fill="#B2B7C4" transform="translate(13.592688, 12.495740) scale(-1, 1) rotate(1.000000) translate(-13.592688, -12.495740) "/></g></g></g></g></g></svg>