<?xml version="1.0" encoding="UTF-8" ?><svg width="24px" height="24px" viewBox="0 0 24 24" version="1.1" xmlns="http://www.w3.org/2000/svg" xmlns:xlink="http://www.w3.org/1999/xlink"><title>
		扬声器未检测
	</title><defs><path d="M13.1602296,6.12541121 C13.2416933,6.20258733 13.2888565,6.31406396 13.2888565,6.42554059 L13.2888565,17.5732034 C13.2888565,17.8090194 13.0959162,18.0019597 12.8601002,18.0019597 C12.744336,18.0019597 12.637147,17.9547965 12.5556833,17.8733328 L9.28856054,14.5719096 L6.42875626,14.5719096 C6.21914209,14.5719096 6.04340496,14.4194629 6.00694009,14.2199648 L6,14.1431533 L6,9.8555907 C6,9.61977476 6.19294032,9.42683444 6.42875626,9.42683444 L9.28856054,9.42683444 L12.5556833,6.12541121 C12.7228982,5.95819626 12.9930147,5.95819626 13.1602296,6.12541121 Z M12.431344,7.46741831 L9.76876756,10.1557201 C9.68730387,10.2371838 9.5801148,10.284347 9.46435061,10.284347 L6.85751253,10.284347 L6.85751253,13.7143971 L9.46435061,13.7143971 C9.5801148,13.7143971 9.68730387,13.7615603 9.76876756,13.843024 L12.431344,16.5313257 L12.431344,7.46741831 Z M16.7875076,8.60362241 L16.7875076,8.62077266 C18.459657,10.6016266 18.3953436,13.5214568 16.6374429,15.4294221 L16.6374429,15.4294221 L16.0071712,14.8291634 C17.4735176,13.2384776 17.5249684,10.8074296 16.1315105,9.15671799 L16.1315105,9.15671799 L16.7875076,8.60362241 Z M15.0467572,9.73125139 C16.165811,11.0518207 16.1229354,12.9983741 14.9481432,14.2717802 L14.9481432,14.2717802 L14.3178715,13.6886717 C15.1968219,12.7368328 15.2311224,11.2747739 14.3950476,10.284347 L14.3950476,10.284347 Z" id="SpeakerSvg_svg__path-1"/></defs><g id="SpeakerSvg_svg__远程监考DEMO" stroke="none" stroke-width="1" fill="none" fill-rule="evenodd"><g id="SpeakerSvg_svg__步骤条的不同状态" transform="translate(-169.000000, -52.000000)"><g id="SpeakerSvg_svg__扬声器未检测" transform="translate(169.000000, 52.000000)"><circle id="SpeakerSvg_svg__椭圆形" stroke="#B2B7C4" cx="12" cy="12" r="11.5"/><mask id="SpeakerSvg_svg__mask-2" fill="white"><use xlink:href="#SpeakerSvg_svg__path-1"/></mask><use id="SpeakerSvg_svg__蒙版" fill="#B2B7C4" fill-rule="nonzero" xlink:href="#SpeakerSvg_svg__path-1"/></g></g></g></svg>