<?xml version="1.0" encoding="UTF-8"?><svg width="28px" height="25px" viewBox="0 0 28 25" version="1.1" xmlns="http://www.w3.org/2000/svg" xmlns:xlink="http://www.w3.org/1999/xlink"><g id="StartScreenSvg_svg__远程监考DEMO" stroke="none" stroke-width="1" fill="none" fill-rule="evenodd"><g id="StartScreenSvg_svg__12.共享屏幕检测-未开启" transform="translate(-406.000000, -394.000000)" fill="#B2B7C4"><g id="StartScreenSvg_svg__检测/基础版/完整/检测/摄像头" transform="translate(206.000000, 173.000000)"><g id="StartScreenSvg_svg__检测/拓展版/元素/通用/测试画面/有画面" transform="translate(25.000000, 152.000000)"><g id="StartScreenSvg_svg__编组-3" transform="translate(45.000000, 69.000000)"><g id="StartScreenSvg_svg__编组" transform="translate(130.000000, 0.000000)"><path d="M25.788571,0 L2.20941126,0 C0.990704043,0 0,1.06449197 0,2.37130731 L0,17.6290238 C0,18.9358391 0.99272177,20.0003311 2.20941126,20.0003311 L13.0224112,20.0003311 L13.0224112,22.9056337 L9.35620091,22.9056337 C8.76702457,22.9056337 8.29084096,23.3751352 8.29084096,23.9528168 C8.29084096,24.5304985 8.76702457,25 9.35620091,25 L18.6437991,25 C19.2329754,25 19.709159,24.5304985 19.709159,23.9528168 C19.709159,23.3751352 19.2329754,22.9056337 18.6437991,22.9056337 L14.9775888,22.9056337 L14.9775888,20.0003311 L25.788571,20.0003311 C27.0072782,20.0003311 28,18.9380027 28,17.6290238 L28,2.36914371 C28,1.06449197 27.009296,0 25.788571,0 Z M25.7940545,17.7729779 C25.6616734,17.918316 25.4818974,18 25.2944131,18 L2.70558693,18 C2.51810259,18 2.33832658,17.918316 2.20594548,17.7729779 C2.07356437,17.6276398 1.99946417,17.4305998 1.99999426,17.2253558 L1.99999426,2.7724246 C1.99999426,2.34403969 2.31832674,2 2.70558693,2 L25.2944131,2 C25.6837008,2 25.9999943,2.34403969 25.9999943,2.7724246 L25.9999943,17.2253558 C26.0005358,17.4305998 25.9264356,17.6276398 25.7940545,17.7729779 Z" id="StartScreenSvg_svg__形状" fill-rule="nonzero"/><rect id="StartScreenSvg_svg__矩形" x="12" y="5" width="2" height="8" rx="1"/><rect id="StartScreenSvg_svg__矩形备份" transform="translate(15.500000, 12.000000) rotate(90.000000) translate(-15.500000, -12.000000) " x="14.5" y="8.5" width="2" height="7" rx="1"/></g></g></g></g></g></g></svg>