<svg viewBox="0 0 25 25" version="1.1" xmlns="http://www.w3.org/2000/svg" width="1em" height="1em" fill="currentColor"><g transform="translate(-1162.000000, -859.000000)"><g transform="translate(1092.000000, 811.000000)"><g transform="translate(70.000000, 48.000000)"><path d="M20.4231835,11.8880588 L20.4231835,11.8735992 C20.4231835,11.2547295 19.9170984,10.7515363 19.3011206,10.7515363 C18.6822509,10.7515363 18.1906254,11.2547295 18.1906254,11.8735992 C18.1906254,15.1848415 15.5127124,17.8743222 12.2130377,17.8743222 C8.91336306,17.8743222 6.23545005,15.1848415 6.23545005,11.8735992 C6.23545005,11.2547295 5.74382456,10.7515363 5.12495481,10.7515363 C4.50608507,10.7515363 4,11.2547295 4,11.8735992 L4,11.8880588 C4,16.0581998 7.08278106,19.4937944 11.0880829,20.0374744 L11.0880829,22.7529823 L7.36040487,22.7529823 C6.74153512,22.7529823 6.23545005,23.2561754 6.23545005,23.8750452 C6.23545005,24.4968068 6.73864321,25 7.36040487,25 L17.0627786,25 C17.6845403,24.9971081 18.1877335,24.4968068 18.1877335,23.8750452 C18.1877335,23.2561754 17.6816484,22.7529823 17.0627786,22.7529823 L13.3379925,22.7529823 L13.3379925,20.0374744 C17.3432944,19.4937944 20.4231835,16.0581998 20.4231835,11.8880588 Z M12.2130377,15.9945777 C14.6885167,15.9945777 16.6983974,13.984697 16.6983974,11.4976503 L16.6983974,5.49692734 C16.6983974,3.01855645 14.6914086,1 12.2130377,1 C9.73755874,1 7.73056995,3.02144837 7.73056995,5.49692734 L7.73056995,11.4976503 C7.73056995,13.984697 9.73755874,15.9945777 12.2130377,15.9945777 Z"/></g></g></g></svg>